REM DIRINDEX 1\2,1\3,1\4,1\5,1\6
REM DIRNAME cjc030,folder01,folder02,folder03,folder04,folder05
TITLE ""
FILE "Disc3Track50.mp3" MP3
  TRACK 01 AUDIO
    TITLE "3:cjc030_05584"
    INDEX 01 00:00:00
  TRACK 02 AUDIO
    TITLE "0:"
    INDEX 01 00:01:03
  TRACK 03 AUDIO
    TITLE "4:cjc030_05585"
    INDEX 01 00:01:11
  TRACK 04 AUDIO
    TITLE "0:"
    INDEX 01 00:01:66
  TRACK 05 AUDIO
    TITLE "5:cjc030_05586"
    INDEX 01 00:01:73
  TRACK 06 AUDIO
    TITLE "0:"
    INDEX 01 00:03:06
  TRACK 07 AUDIO
    TITLE "3:cjc030_05587"
    INDEX 01 00:03:63
  TRACK 08 AUDIO
    TITLE "0:"
    INDEX 01 00:04:68
  TRACK 09 AUDIO
    TITLE "4:cjc030_05588"
    INDEX 01 00:04:74
  TRACK 10 AUDIO
    TITLE "0:"
    INDEX 01 00:07:49
  TRACK 11 AUDIO
    TITLE "5:cjc030_05589"
    INDEX 01 00:07:58
  TRACK 12 AUDIO
    TITLE "0:"
    INDEX 01 00:08:60
  TRACK 13 AUDIO
    TITLE "6:cjc030_05590"
    INDEX 01 00:09:00
  TRACK 14 AUDIO
    TITLE "0:"
    INDEX 01 00:14:29
  TRACK 15 AUDIO
    TITLE "3:cjc030_05591"
    INDEX 01 00:15:03
  TRACK 16 AUDIO
    TITLE "0:"
    INDEX 01 00:16:12
  TRACK 17 AUDIO
    TITLE "4:cjc030_05592"
    INDEX 01 00:16:20
  TRACK 18 AUDIO
    TITLE "0:"
    INDEX 01 00:19:73
  TRACK 19 AUDIO
    TITLE "5:cjc030_05593"
    INDEX 01 00:20:08
  TRACK 20 AUDIO
    TITLE "0:"
    INDEX 01 00:21:15
  TRACK 21 AUDIO
    TITLE "6:cjc030_05594"
    INDEX 01 00:21:29
  TRACK 22 AUDIO
    TITLE "0:"
    INDEX 01 00:23:38
  TRACK 23 AUDIO
    TITLE "3:cjc030_05595"
    INDEX 01 00:24:14
  TRACK 24 AUDIO
    TITLE "0:"
    INDEX 01 00:25:29
  TRACK 25 AUDIO
    TITLE "4:cjc030_05596"
    INDEX 01 00:25:37
  TRACK 26 AUDIO
    TITLE "0:"
    INDEX 01 00:27:26
  TRACK 27 AUDIO
    TITLE "5:cjc030_05597"
    INDEX 01 00:27:34
  TRACK 28 AUDIO
    TITLE "0:"
    INDEX 01 00:28:49
  TRACK 29 AUDIO
    TITLE "3:cjc030_05598"
    INDEX 01 00:29:31
  TRACK 30 AUDIO
    TITLE "0:"
    INDEX 01 00:30:36
  TRACK 31 AUDIO
    TITLE "4:cjc030_05599"
    INDEX 01 00:30:42
  TRACK 32 AUDIO
    TITLE "0:"
    INDEX 01 00:35:29
  TRACK 33 AUDIO
    TITLE "5:cjc030_05600"
    INDEX 01 00:35:39
  TRACK 34 AUDIO
    TITLE "0:"
    INDEX 01 00:36:44
  TRACK 35 AUDIO
    TITLE "6:cjc030_05601"
    INDEX 01 00:36:58
  TRACK 36 AUDIO
    TITLE "0:"
    INDEX 01 00:38:63
  TRACK 37 AUDIO
    TITLE "6:cjc030_05602"
    INDEX 01 00:39:21
  TRACK 38 AUDIO
    TITLE "0:"
    INDEX 01 00:44:54
  TRACK 39 AUDIO
    TITLE "3:cjc030_05603"
    INDEX 01 00:45:30
  TRACK 40 AUDIO
    TITLE "0:"
    INDEX 01 00:46:31
  TRACK 41 AUDIO
    TITLE "4:cjc030_05604"
    INDEX 01 00:46:41
  TRACK 42 AUDIO
    TITLE "0:"
    INDEX 01 00:51:01
  TRACK 43 AUDIO
    TITLE "5:cjc030_05605"
    INDEX 01 00:51:09
  TRACK 44 AUDIO
    TITLE "0:"
    INDEX 01 00:52:12
  TRACK 45 AUDIO
    TITLE "6:cjc030_05606"
    INDEX 01 00:52:26
  TRACK 46 AUDIO
    TITLE "0:"
    INDEX 01 00:54:27
  TRACK 47 AUDIO
    TITLE "6:cjc030_05607"
    INDEX 01 00:54:66
  TRACK 48 AUDIO
    TITLE "0:"
    INDEX 01 00:59:08
  TRACK 49 AUDIO
    TITLE "3:cjc030_05608"
    INDEX 01 00:59:57
  TRACK 50 AUDIO
    TITLE "0:"
    INDEX 01 01:01:07
  TRACK 51 AUDIO
    TITLE "4:cjc030_05609"
    INDEX 01 01:01:13
  TRACK 52 AUDIO
    TITLE "0:"
    INDEX 01 01:02:40
  TRACK 53 AUDIO
    TITLE "5:cjc030_05610"
    INDEX 01 01:02:46
  TRACK 54 AUDIO
    TITLE "0:"
    INDEX 01 01:04:00
  TRACK 55 AUDIO
    TITLE "6:cjc030_05611"
    INDEX 01 01:04:11
  TRACK 56 AUDIO
    TITLE "0:"
    INDEX 01 01:09:26
  TRACK 57 AUDIO
    TITLE "3:cjc030_05612"
    INDEX 01 01:10:00
  TRACK 58 AUDIO
    TITLE "0:"
    INDEX 01 01:11:05
  TRACK 59 AUDIO
    TITLE "4:cjc030_05613"
    INDEX 01 01:11:13
  TRACK 60 AUDIO
    TITLE "0:"
    INDEX 01 01:12:13
  TRACK 61 AUDIO
    TITLE "5:cjc030_05614"
    INDEX 01 01:12:23
  TRACK 62 AUDIO
    TITLE "0:"
    INDEX 01 01:13:24
  TRACK 63 AUDIO
    TITLE "6:cjc030_05615"
    INDEX 01 01:13:40
  TRACK 64 AUDIO
    TITLE "0:"
    INDEX 01 01:17:47
  TRACK 65 AUDIO
    TITLE "3:cjc030_05616"
    INDEX 01 01:18:21
  TRACK 66 AUDIO
    TITLE "0:"
    INDEX 01 01:19:13
  TRACK 67 AUDIO
    TITLE "4:cjc030_05617"
    INDEX 01 01:19:21
  TRACK 68 AUDIO
    TITLE "0:"
    INDEX 01 01:22:15
  TRACK 69 AUDIO
    TITLE "5:cjc030_05618"
    INDEX 01 01:22:23
  TRACK 70 AUDIO
    TITLE "0:"
    INDEX 01 01:23:16
  TRACK 71 AUDIO
    TITLE "6:cjc030_05619"
    INDEX 01 01:23:28
  TRACK 72 AUDIO
    TITLE "0:"
    INDEX 01 01:27:53
  TRACK 73 AUDIO
    TITLE "3:cjc030_05620"
    INDEX 01 01:28:27
  TRACK 74 AUDIO
    TITLE "0:"
    INDEX 01 01:29:25
  TRACK 75 AUDIO
    TITLE "4:cjc030_05621"
    INDEX 01 01:29:33
  TRACK 76 AUDIO
    TITLE "0:"
    INDEX 01 01:30:36
  TRACK 77 AUDIO
    TITLE "5:cjc030_05622"
    INDEX 01 01:30:44
  TRACK 78 AUDIO
    TITLE "0:"
    INDEX 01 01:31:43
